HIERARCHY
ROOT Hips
{
	OFFSET -0.001795 -0.223333 0.028219
	CHANNELS 6 Xposition Yposition Zposition Zrotation Yrotation Xrotation 
	JOINT LeftUpLeg
	{
		OFFSET 0.069520 -0.091406 -0.006815
		CHANNELS 3 Zrotation Yrotation Xrotation
		JOINT LeftLeg
		{
			OFFSET 0.034277 -0.375199 -0.004496
			CHANNELS 3 Zrotation Yrotation Xrotation
			JOINT LeftFoot
			{
				OFFSET -0.013596 -0.397961 -0.043693
				CHANNELS 3 Zrotation Yrotation Xrotation
				JOINT LeftToe
				{
					OFFSET 0.026358 -0.055791 0.119288
					CHANNELS 3 Zrotation Yrotation Xrotation
					End Site
					{
						OFFSET 0.000000 0.000000 0.000000
					}
				}
			}
		}
	}
	JOINT RightUpLeg
	{
		OFFSET -0.067670 -0.090522 -0.004320
		CHANNELS 3 Zrotation Yrotation Xrotation
		JOINT RightLeg
		{
			OFFSET -0.038290 -0.382569 -0.008850
			CHANNELS 3 Zrotation Yrotation Xrotation
			JOINT RightFoot
			{
				OFFSET 0.015774 -0.398415 -0.042312
				CHANNELS 3 Zrotation Yrotation Xrotation
				JOINT RightToe
				{
					OFFSET -0.025372 -0.048144 0.123348
					CHANNELS 3 Zrotation Yrotation Xrotation
					End Site
					{
						OFFSET 0.000000 0.000000 0.000000
					}
				}
			}
		}
	}
	JOINT Spine
	{
		OFFSET -0.002533 0.108963 -0.026696
		CHANNELS 3 Zrotation Yrotation Xrotation
		JOINT Spine1
		{
			OFFSET 0.005487 0.135180 0.001092
			CHANNELS 3 Zrotation Yrotation Xrotation
			JOINT Spine2
			{
				OFFSET 0.001457 0.052922 0.025425
				CHANNELS 3 Zrotation Yrotation Xrotation
				JOINT Neck
				{
					OFFSET -0.002778 0.213870 -0.042857
					CHANNELS 3 Zrotation Yrotation Xrotation
					JOINT Head
					{
						OFFSET 0.005152 0.064970 0.051349
						CHANNELS 3 Zrotation Yrotation Xrotation
						End Site
						{
							OFFSET 0.000000 0.000000 0.000000
						}
					}
				}
				JOINT LeftShoulder
				{
					OFFSET 0.078845 0.121749 -0.034090
					CHANNELS 3 Zrotation Yrotation Xrotation
					JOINT LeftArm
					{
						OFFSET 0.090977 0.030469 -0.008868
						CHANNELS 3 Zrotation Yrotation Xrotation
						JOINT LeftForeArm
						{
							OFFSET 0.259612 -0.012772 -0.027456
							CHANNELS 3 Zrotation Yrotation Xrotation
							JOINT LeftHand
							{
								OFFSET 0.249234 0.008986 -0.001171
								CHANNELS 3 Zrotation Yrotation Xrotation
								End Site
								{
									OFFSET 0.000000 0.000000 0.000000
								}
							}
						}
					}
				}
				JOINT RightShoulder
				{
					OFFSET -0.081759 0.118833 -0.038615
					CHANNELS 3 Zrotation Yrotation Xrotation
					JOINT RightArm
					{
						OFFSET -0.096012 0.032551 -0.009143
						CHANNELS 3 Zrotation Yrotation Xrotation
						JOINT RightForeArm
						{
							OFFSET -0.253742 -0.013329 -0.021401
							CHANNELS 3 Zrotation Yrotation Xrotation
							JOINT RightHand
							{
								OFFSET -0.255298 0.007772 -0.005559
								CHANNELS 3 Zrotation Yrotation Xrotation
								End Site
								{
									OFFSET 0.000000 0.000000 0.000000
								}
							}
						}
					}
				}
			}
		}
	}
}
MOTION
Frames: 10
Frame Time: 0.050000
0.468107 0.903957 0.778064 -168.015893 -89.859525 171.674161 -4.673735 3.056783 -24.919475 3.598274 0.786452 8.779835 2.441051 4.094432 5.864334 0.000000 0.000000 0.000000 -5.616515 4.618872 12.266528 -0.166814 2.291222 15.671956 20.931845 24.919695 12.499308 0.000000 0.000000 0.000000 2.392393 0.098824 -1.047782 -9.812242 9.740123 6.507141 11.098798 -15.861826 2.459770 -6.458027 1.126119 -16.951488 0.000000 0.000000 0.000000 -37.756525 3.210783 21.073774 -29.251745 -9.658987 -6.312330 16.458359 -32.699406 -3.490270 0.000000 0.000000 0.000000 17.936782 12.034344 -12.305375 16.906978 -11.055327 -0.837476 83.721268 67.185342 53.122386 0.000000 0.000000 0.000000 
0.415145 0.913209 0.799595 -28.160878 -89.428534 32.288688 -4.839571 1.902691 -21.284555 2.558343 1.005096 7.887981 1.271823 4.255943 2.157961 0.000000 0.000000 0.000000 -4.591263 3.220658 9.605864 -0.086194 4.449695 22.310568 22.699964 16.769030 19.611118 0.000000 0.000000 0.000000 1.832470 0.164885 -1.432164 -11.499766 8.533789 2.463706 12.085874 -15.342717 5.057151 -5.533910 0.551868 -17.295887 0.000000 0.000000 0.000000 -38.293491 3.250681 22.212195 -28.890436 -10.053330 -6.479791 14.913237 -30.880381 -3.102698 0.000000 0.000000 0.000000 18.331959 9.952371 -14.076559 17.328370 -9.567709 -0.670038 79.632082 64.832621 47.323312 0.000000 0.000000 0.000000 
0.366543 0.921881 0.817913 -1.513655 -85.868369 5.681575 -5.552524 0.486992 -17.878839 1.212734 1.094220 6.554658 0.255157 2.524146 2.273083 0.000000 0.000000 0.000000 -3.118107 1.446781 3.527284 1.013739 7.383728 30.077342 15.515692 12.549886 13.763887 0.000000 0.000000 0.000000 2.025543 0.320799 -2.986877 -9.573318 7.423490 3.415904 9.576278 -16.638598 4.488976 -4.805659 0.025581 -16.857360 0.000000 0.000000 0.000000 -38.100032 4.583280 20.535019 -31.169405 -7.382900 -7.252045 18.301732 -37.368704 -4.392207 0.000000 0.000000 0.000000 21.494429 12.414356 -15.491001 13.198846 -11.501280 -0.228911 78.264839 59.379004 44.334629 0.000000 0.000000 0.000000 
0.321890 0.929606 0.833790 7.285584 -82.456880 -4.057942 -8.155509 -0.909650 -12.438700 1.997188 0.381917 3.825312 -0.256738 2.435729 0.886357 0.000000 0.000000 0.000000 -4.264929 1.105238 -2.017383 6.134171 8.667999 36.222958 5.493086 6.339234 5.142318 0.000000 0.000000 0.000000 0.759569 0.286557 -2.823740 -9.887489 8.206525 4.882728 10.150396 -16.635790 3.180313 -3.756884 -0.669684 -18.361640 0.000000 0.000000 0.000000 -37.829110 2.921195 20.286914 -31.600623 -6.768130 -7.067294 20.546567 -40.584391 -5.484526 0.000000 0.000000 0.000000 19.339807 10.474864 -13.582401 16.332634 -10.223329 -0.484740 71.617650 57.783553 35.811830 0.000000 0.000000 0.000000 
0.280594 0.934240 0.846737 5.192403 -77.364134 -2.963908 -8.790590 -1.197304 -7.944834 1.721534 0.252377 2.868519 -1.290681 1.075578 -0.783236 0.000000 0.000000 0.000000 -2.964267 0.862209 -6.661911 6.580685 8.684738 37.259641 -0.987956 1.695330 -1.007764 0.000000 0.000000 0.000000 0.223993 0.157506 -1.866533 -9.085629 7.374365 4.931797 9.508088 -16.858501 2.826371 -3.216333 -1.002922 -18.598037 0.000000 0.000000 0.000000 -38.966934 2.833703 20.244317 -31.257114 -7.077374 -7.209981 26.476735 -44.687808 -8.164205 0.000000 0.000000 0.000000 19.818659 11.699759 -12.986068 17.419210 -11.257315 -0.494264 65.472850 53.023416 28.076041 0.000000 0.000000 0.000000 
0.241001 0.936221 0.856928 4.233088 -69.584456 -3.036428 -10.229766 -0.950731 -3.311282 2.955683 -0.269939 1.853097 -3.061517 -2.515178 -2.664223 0.000000 0.000000 0.000000 -3.666576 1.328454 -11.252756 6.881046 6.391723 33.380400 -6.178610 -4.257288 -5.536869 0.000000 0.000000 0.000000 -0.232893 0.047339 -0.568892 -8.394336 7.006149 6.003192 9.444162 -17.588221 1.685565 -3.518891 -1.032554 -20.711210 0.000000 0.000000 0.000000 -39.189039 1.308080 20.140077 -30.921746 -7.107301 -7.017500 32.414775 -50.329593 -11.835404 0.000000 0.000000 0.000000 19.848898 11.995846 -11.893827 19.778457 -13.191812 -0.869817 62.668965 50.849893 24.307676 0.000000 0.000000 0.000000 
0.201382 0.937582 0.865360 2.166557 -61.137776 -1.628927 -9.670734 -0.302700 0.384807 3.729597 -0.511322 2.364610 -4.960397 -7.438088 -3.668178 0.000000 0.000000 0.000000 -4.027410 2.058367 -16.056022 4.224042 4.298191 27.032579 -4.824448 -4.574476 -3.797134 0.000000 0.000000 0.000000 -0.447956 -0.004818 0.360562 -7.184579 5.807056 6.018144 8.630243 -17.747246 1.649221 -4.451310 -0.608634 -21.774687 0.000000 0.000000 0.000000 -39.767542 0.405119 19.726069 -30.158945 -7.789514 -6.759715 38.985442 -56.396622 -16.744604 0.000000 0.000000 0.000000 20.915357 13.148417 -11.217778 21.732310 -16.181928 -1.352540 60.105394 47.090565 20.445205 0.000000 0.000000 0.000000 
0.160666 0.937698 0.872972 1.689405 -51.968820 -2.056699 -8.010366 0.329798 3.329741 4.466177 -0.701540 3.956175 -7.091909 -13.619486 -7.368798 0.000000 0.000000 0.000000 -6.977798 2.330679 -18.063675 1.626718 2.336840 19.254071 -0.449914 -1.249181 1.078130 0.000000 0.000000 0.000000 -0.638840 -0.042154 1.389657 -5.917920 4.943241 6.968726 7.101528 -17.210714 0.993157 -4.018913 -0.530390 -21.876716 0.000000 0.000000 0.000000 -40.051963 -0.907736 18.697486 -28.619594 -7.368441 -6.339717 44.627137 -64.865630 -23.403273 0.000000 0.000000 0.000000 22.599507 14.271309 -10.179200 24.461735 -19.271413 -2.169036 58.931248 44.483370 18.404482 0.000000 0.000000 0.000000 
0.117669 0.936102 0.880212 1.097202 -43.237872 -2.525887 -5.777202 0.891536 5.980356 5.360674 -0.944735 4.439237 -9.353310 -21.290346 -8.485353 0.000000 0.000000 0.000000 -8.625682 2.051601 -17.698909 -1.310777 1.425631 12.958081 4.292905 7.924689 2.749262 0.000000 0.000000 0.000000 -0.744304 -0.069742 2.591210 -4.106368 3.366603 6.467748 4.796611 -15.320898 2.196681 -5.007243 0.297117 -22.444529 0.000000 0.000000 0.000000 -40.409389 -2.598974 17.433774 -27.931144 -7.933446 -5.831964 47.170415 -70.965162 -27.978073 0.000000 0.000000 0.000000 26.084502 16.186848 -8.743668 24.072176 -23.520397 -2.985427 58.865978 42.789702 18.940520 0.000000 0.000000 0.000000 
0.072260 0.934699 0.887532 0.983818 -34.340647 -2.063835 -2.851869 1.013694 6.984521 6.169713 -1.141713 5.022326 -10.434918 -26.928734 -9.744290 0.000000 0.000000 0.000000 -11.002813 1.744698 -17.507988 -2.661401 1.022889 9.208739 10.287093 20.210405 5.610644 0.000000 0.000000 0.000000 -0.624709 -0.038186 1.197167 -3.691223 3.139648 8.134293 3.316631 -13.569395 1.755245 -4.300635 0.562557 -21.941258 0.000000 0.000000 0.000000 -40.007906 -5.307969 16.367838 -26.193865 -6.136099 -5.196601 48.176702 -75.946843 -32.017594 0.000000 0.000000 0.000000 29.081039 16.509485 -7.011182 25.263304 -23.774226 -3.464455 56.492799 43.039524 19.263217 0.000000 0.000000 0.000000 
